<?xml version="1.0" encoding="UTF-8"?>
<!-- Created with Inkscape (http://www.inkscape.org/) -->
<svg width="192.45" height="46.124" version="1.1" viewBox="0 0 50.92 12.204" xmlns="http://www.w3.org/2000/svg">
 <g transform="translate(-24.55 -66.022)">
  <g transform="matrix(.35278 0 0 -.35278 55.191 75.91)">
   <path d="m0 0h2.514v0.8h-3.323v-7.213h3.323v0.8h-2.514v2.497h2.289v0.8h-2.289zm-9.281 0h2.513v0.8h-3.322v-7.213h3.322v0.8h-2.513v2.497h2.285v0.8h-2.285zm-16.117-6.413v3.297h2.287v0.8h-2.287v2.316h2.515v0.8h-3.322v-7.213zm-16.254 6.413h2.515v0.8h-3.324v-7.213h3.324v0.8h-2.515v2.497h2.285v0.8h-2.285zm74.927 0h2.514v0.8h-3.322v-7.213h3.322v0.8h-2.514v2.497h2.286v0.8h-2.286zm-1.947-1.188c0.078 1.398-0.406 2.137-1.664 2.137-1.251 0-2.039-0.579-2.039-2.617v-2.039c0-2.796 1.211-2.856 2.004-2.856 0.412 0 1.826 0 1.793 2.278h-0.834c-0.01-1.408-0.758-1.508-1.004-1.508-0.625 0-1.135 0.21-1.135 1.977v1.927c0 1.239 0.158 1.418 0.186 1.499 0.025 0.1 0.289 0.56 0.959 0.56 0.168 0 0.545-0.08 0.713-0.31 0.166-0.23 0.193-0.638 0.183-1.048zm-5.568-2.708h-2.028l0.993 3.846h0.017zm-3.526-2.517h0.819l0.474 1.719h2.453l0.457-1.719h0.907l-2.069 7.213h-1.025zm-2.459 6.413h1.118c0.173 0 0.893-0.11 0.893-1.208 0-1.128-0.788-1.228-1.122-1.228h-0.889zm0-6.413v3.177h1.063c0.652 0 1.774 0.339 1.774 1.978 0 1.698-0.911 2.058-1.764 2.058h-1.883v-7.213zm-5.688 2.148c-0.019-0.69-0.019-2.318 1.852-2.298 1.048 0 1.973 0.49 1.973 2.008 0 2.287-2.848 2.058-2.848 3.647 0 0.778 0.487 1.058 0.974 1.058 0.765 0 0.984-0.52 0.976-1.308h0.845c0.053 1.468-0.599 2.107-1.761 2.107-1.061 0-1.862-0.679-1.862-1.957 0-2.169 2.849-1.989 2.849-3.587 0-0.86-0.495-1.168-1.137-1.168-0.519 0-1.059 0.308-1.059 1.288v0.21zm-4.387 1.578-1.237 3.487h-0.906l1.702-4.467v-2.746h0.811v2.746l1.733 4.467h-0.819zm-5.319 2.687h1.222c0.622 0 0.85-0.58 0.85-1.098 0-0.631-0.281-1.201-0.858-1.201h-1.214zm0.949-3.097c0.273 0 0.895-0.039 0.955-0.918 0.07-0.96 0.018-1.899 0.246-2.398h0.846c-0.123 0.45-0.211 1.578-0.221 1.888-0.043 1.448-0.306 1.729-1.037 1.859v0.02c0.746 0.149 1.162 0.798 1.162 1.648 0 0.898-0.396 1.798-1.523 1.798h-2.188v-7.213h0.811v3.316zm-6.963 3.897h-0.826l-1.489-6.342h-0.018l-1.446 6.342h-0.881l1.84-7.213h0.963zm-14.678-0.8h1.223c0.623 0 0.852-0.58 0.852-1.098 0-0.631-0.282-1.201-0.862-1.201h-1.213zm0.95-3.097c0.273 0 0.896-0.039 0.957-0.918 0.07-0.96 0.017-1.899 0.246-2.398h0.845c-0.123 0.45-0.21 1.578-0.22 1.888-0.043 1.448-0.309 1.729-1.035 1.859v0.02c0.746 0.149 1.16 0.798 1.16 1.648 0 0.898-0.399 1.798-1.522 1.798h-2.189v-7.213h0.808v3.316zm-4.912-2.696c-0.763 0-1.168 0.398-1.168 1.977v2.438c0 1.508 0.914 1.558 1.168 1.558 0.256 0 1.169-0.05 1.169-1.558v-2.438c0-1.579-0.403-1.977-1.169-1.977m0-0.77c1.345 0 1.997 0.79 1.997 2.787v2.368c0 1.438-0.652 2.357-1.997 2.357-1.344 0-1.995-0.919-1.995-2.357v-2.368c0-1.997 0.651-2.787 1.995-2.787m-12.945 2.298c-0.016-0.69-0.016-2.318 1.856-2.298 1.045 0 1.969 0.49 1.969 2.008 0 2.287-2.849 2.058-2.849 3.647 0 0.778 0.494 1.058 0.977 1.058 0.763 0 0.984-0.52 0.974-1.308h0.846c0.052 1.468-0.599 2.107-1.759 2.107-1.065 0-1.863-0.679-1.863-1.957 0-2.169 2.847-1.989 2.847-3.587 0-0.86-0.491-1.168-1.133-1.168-0.52 0-1.063 0.308-1.063 1.288v0.21zm-1.903 0.369h-2.031l0.996 3.846h0.015zm-3.525-2.517h0.818l0.474 1.719h2.454l0.457-1.719h0.904l-2.065 7.213h-1.029zm-8.186 6.413h1.063c0.844 0 1.24-0.54 1.24-1.998v-1.459c0-1.678-0.413-2.156-1.538-2.156h-0.765zm-0.809-6.413h1.459c1.108 0 1.75 0.31 2.094 0.928 0.264 0.48 0.387 1.371 0.387 2.908 0 0.231-0.028 1.669-0.282 2.277-0.318 0.77-0.9 1.1-1.705 1.1h-1.953zm-1.547 7.213h-0.811v-7.213h0.811zm-4.35-1.928c0.053 1.508-0.598 2.077-1.97 2.077-1.346 0-1.996-0.919-1.996-2.357v-2.368c0-1.997 0.65-2.787 1.996-2.787 0.817 0 1.425 0.22 1.944 0.54v3.507h-1.979v-0.801h1.168v-2.158c-0.166-0.138-0.552-0.318-1.133-0.318-0.765 0-1.168 0.398-1.168 1.977v2.438c0 1.508 0.913 1.558 1.168 1.558 0.817 0 1.125-0.46 1.125-1.308zm-5.415 1.928h-0.809v-7.213h0.809zm-5.399-3.837h0.864c0.824 0 1.449-0.199 1.449-1.348 0-0.53-0.307-1.228-1.168-1.228h-1.145zm0 3.037h1.145c0.674 0 0.975-0.49 0.975-1.088 0-0.701-0.307-1.141-0.94-1.15h-1.18zm1.233-6.413c0.719 0 1.904 0.18 1.904 2.028 0 0.989-0.392 1.608-1.299 1.729v0.05c0.819 0.209 1.091 0.808 1.091 1.708 0 0.14-0.036 0.568-0.255 0.959-0.238 0.399-0.537 0.739-1.416 0.739h-2.066v-7.213zm-1.289 30.723c-1.147 4.421-13.672 5.067-21.629 1.041-0.26-0.131-0.636-0.404-0.703-0.746 0 0-0.107-0.68-0.112-0.712-0.037-0.244 0.213-0.194 0.311-0.134 1.046 0.631 2.208 1.201 3.272 1.521 5.042 1.521 11.433 1.573 12.556-1.724 0.781-2.297-2.437-4.183-4.233-5.041-0.691-0.331-0.932-0.636-0.974-0.973-0.036-0.298 0.066-0.736 0.467-1.328 2.557-3.779 10.07-9.23 17.45-11.134 0.292-0.076 0.452-0.038 0.579 0.028 0.065 0.036 0.143 0.091 0.019 0.156-4.92 2.562-9.613 6.894-11.928 10.242-0.526 0.76-0.693 1.267-0.649 1.676 0.038 0.37 0.377 0.677 1.068 1.001 2.605 1.219 5.299 3.058 4.506 6.127m-21.429-14.162h6.747v6.745h-6.747zm138.07 7.275-4.801 1.575c-1.974 0.651-2.579 0.938-2.579 1.689 0 0.597 0.393 1.146 2.864 1.146h7.183c0.352 0 0.612 0.104 0.785 0.431l0.858 1.627-10.714-1e-3c-4.86 0-6.679-1.519-6.679-3.629 0-1.219 0.696-2.847 5.252-4.341l4.8-1.577c1.974-0.651 2.579-0.927 2.579-1.677 0-0.599-0.39-1.148-2.863-1.148l-9.777 1e-3 -7.563 12.372h-2.869c-2.235 0-3.378-0.618-4.422-2.321l-7.396-12.111h5.023l6.107 10.8c0.149 0.262 0.27 0.258 0.395 0.258l5.092-8.998h-5.535c-0.352 0-0.609-0.105-0.786-0.431l-0.857-1.628 14.064-1e-3 6e-3 -1e-3v1e-3h10.407c4.859 0 6.676 1.52 6.676 3.63 0 1.221-0.692 2.839-5.25 4.334m-43.399-3.08c1.975-0.651 2.578-0.927 2.578-1.677 0-0.652-0.391-1.148-2.863-1.148l-8.491 1e-3c-0.353 0-0.609-0.105-0.783-0.431l-0.857-1.628 12.021-1e-3c4.858 0 6.676 1.52 6.676 3.63 0 1.221-0.693 2.839-5.249 4.334l-4.802 1.575c-1.974 0.651-2.578 0.938-2.578 1.689 0 0.597 0.34 1.146 2.863 1.146h7.184c0.352 0 0.61 0.104 0.785 0.431l0.857 1.627-10.714-1e-3c-4.86 0-6.678-1.519-6.678-3.629 0-1.219 0.693-2.847 5.25-4.341l4.801-1.577m-21.057 7.49h7.34c0.354 0 0.612 0.104 0.788 0.431l0.857 1.627h-10.485c-4.666 0-6.933-1.692-6.933-5.17v-3.983c0-3.705 2.334-5.277 6.933-5.277l9.101-1e-3c0.353 0 0.612 0.105 0.786 0.431l0.857 1.628h-9.246c-2.42 0-3.287 0.824-3.287 2.453v1.963l9.584-1e-3c0.354 0 0.612 0.106 0.785 0.431l0.858 1.628-11.227-2e-3v1.196c0 1.376 0.311 2.646 3.289 2.646m-41.681 0h7.34c0.353 0 0.611 0.104 0.787 0.431l0.857 1.627h-10.485c-4.667 0-6.937-1.692-6.937-5.17v-3.983c0-3.705 2.336-5.277 6.94-5.277l9.099-1e-3c0.354 0 0.61 0.105 0.785 0.431l0.856 1.628h-9.244c-2.422 0-3.287 0.824-3.287 2.453v1.963l9.583-1e-3c0.352 0 0.612 0.106 0.786 0.431l0.858 1.628-11.227-2e-3v1.196c0 1.376 0.312 2.646 3.289 2.646m14.365 2.058c3.062 0 3.743-0.473 4.912-1.834l7.508-8.802c0.107-0.124 0.168-0.158 0.289-0.158v10.794h2.9l-1e-3 -14.431h-3.106c-2.054 3e-3 -2.905 0.163-4.154 1.631l-7.744 9.088c-0.105 0.129-0.173 0.164-0.292 0.164l2e-3 -10.883-2.9-1e-3v14.43l2.586 2e-3" fill="#fff"/>
  </g>
 </g>
</svg>
